<svg width="26" height="32" viewBox="0 0 26 32" fill="none" xmlns="http://www.w3.org/2000/svg">
<path d="M12.913 11.2248C17.2593 11.2248 20.7826 8.71205 20.7826 5.6124C20.7826 2.51276 17.2593 0 12.913 0C8.5668 0 5.04348 2.51276 5.04348 5.6124C5.04348 8.71205 8.5668 11.2248 12.913 11.2248Z" fill="#FCBE2C"/>
<path d="M4.32886 12.2554C4.48057 11.8953 4.98311 11.6469 5.55203 11.6594L8.30435 11.6589C9.15772 11.6713 9.7051 12.2802 9.39219 12.8017L3.13414 23.3005C2.89709 23.6979 2.22388 23.909 1.60755 23.7724L0.849003 23.611C0.223197 23.4806 -0.127633 23.046 0.043041 22.6362L4.32886 12.2554Z" fill="#FCBE2C"/>
<path d="M21.6763 12.2554C21.5244 11.8953 21.0214 11.6469 20.4519 11.6594H17.7391C16.8849 11.6718 16.2947 12.2802 16.6079 12.8017L22.8627 23.3005C23.1 23.6979 23.7739 23.909 24.3908 23.7724L25.1501 23.611C25.7766 23.4806 26.1278 23.046 25.9569 22.6362L21.6763 12.2554Z" fill="#FCBE2C"/>
<path d="M6.03069 11.6589H7.3913L6.61381 17.4325L5.73913 18.8527L6.03069 11.6589Z" fill="#F1A42C"/>
<path d="M19.9693 11.6589H18.6087L19.3862 17.4325L20.2609 18.8527L19.9693 11.6589Z" fill="#F1A42C"/>
<path d="M6.34783 11.6589L6.80881 31.5121C6.8151 31.7829 7.12466 32 7.50437 32H11.2024C11.3171 32 11.4111 31.9205 11.4111 31.8388L12.0723 23.9938C12.0912 23.7147 12.4502 23.4977 12.8658 23.4977C13.2815 23.4977 13.6404 23.7147 13.6593 23.9938L14.3205 31.8388C14.3205 31.9214 14.4132 32 14.5291 32H18.3217C18.7014 32 19.011 31.7829 19.0173 31.5121L19.4783 11.6589H6.34783Z" fill="#FCBE2C"/>
<path d="M13.6112 16.8726C13.272 17.2677 12.4672 17.2677 12.128 16.8726L8.46255 12.6029C8.1078 12.1897 8.52477 11.6589 9.20416 11.6589H16.535C17.2144 11.6589 17.6313 12.1897 17.2766 12.6029L13.6112 16.8726Z" fill="#E58A2D"/>
</svg>
